<svg height="65" viewBox="0 0 60 65" width="60" xmlns="http://www.w3.org/2000/svg"><g fill="none"><path d="m55.7061421 34.6288742c-.5507149-.7301595-1.14687-1.4598242-1.7825384-2.1865187.6830842-.7811471 1.3202342-1.5657593 1.9050293-2.3508666.4173581-.5603666.3027699-1.3543844-.2568357-1.7731742-.5596054-.4187899-1.3518447-.3039445-1.7696967.2569171-.4968782.6672917-1.0342575 1.3340884-1.6081866 1.9994-2.0956804-2.1434518-4.5311742-4.2413614-7.2249855-6.2259106-.37093-3.3211127-.9670852-6.486293-1.7647576-9.3678248.7991542-.1534574 1.5834909-.2786983 2.3505405-.3742378 5.709655-.7108537 9.8239652.3390911 11.2884227 2.8815318.4035283.7009533.61443 1.5217022.6272717 2.4389809.0093844.6994681.5882525 1.2568645 1.281215 1.2499343.6979016-.0094055 1.2565193-.5846228 1.2471349-1.2840911-.0182749-1.3558693-.3432709-2.5914479-.9660974-3.6720843-2.0260385-3.5176369-6.9236975-4.9843916-13.7896072-4.128991-.9073214.1128654-1.8378569.2658276-2.7851855.4544315-.3783387-1.1212282-.7892758-2.1870138-1.2328113-3.18894134.8702779-.85243054 1.4121024-2.03999184 1.4121024-3.35229918 0-2.5855078-2.0986439-4.68886265-4.6783609-4.68886265-.7497626 0-1.4585304.17870346-2.0872839.4940334-1.5439777-1.20043197-3.1798235-1.81030093-4.8709878-1.81030093-4.0530647 0-7.7687857 3.51763697-10.4630909 9.9044303-.3556187.8430251-.6880233 1.725652-.9982018 2.6409504-.9463408-.1881089-1.8753945-.3410711-2.7812343-.4539366-6.86640336-.8554006-11.76356857.611354-13.790101 4.1294861-2.02653243 3.5181321-.84508825 8.5020288 3.32701005 14.0339165.55120891.7311497 1.14835199 1.4618044 1.78500813 2.1894889-.77939761.8890622-1.49458623 1.7791145-2.13865112 2.6647115-1.17156589-.3291906-2.46858608-.2054348-3.60310833.4509665-2.23397664 1.2925064-3.00201418 4.1656227-1.71240262 6.4051091.36895438.6395703.87175958 1.1712256 1.46989042 1.5667494-.26523234 1.938512.02568357 3.6611938.87225347 5.1309186 1.64918153 2.862721 5.19993495 4.3670974 10.1657544 4.3670974 1.13551 0 2.3460952-.0787087 3.6243466-.2376113.9058398-.1133604 1.8348935-.2658277 2.7812343-.4544316.3101785.9157934.6425831 1.7979254.9982018 2.6409504 2.6943052 6.3872884 6.4100262 9.9049253 10.4630909 9.9049253 4.0530649 0 7.7687859-3.5176369 10.463091-9.9044303.3561127-.844015.6885173-1.7281271.9991897-2.6449106 1.1572424.2321661 2.2833681.4083944 3.3699807.5247249.0049391.0183159.0083965.0361368.0133357.0544527.3235141 1.2098374 1.0974786 2.2206754 2.179646 2.8473752.7349452.4247301 1.5380506.6271948 2.3312778.6271948 1.6180649 0 3.194147-.8415401 4.0594857-2.3434413.3748812-.650956.5749167-1.3553743.6164057-2.0588028 1.8092098-.7400602 3.1541398-1.8553481 3.9997219-3.3230928 2.0270263-3.5181321.8450883-8.5020287-3.3265162-14.0339165zm-5.2236428-2.1870137c-1.547435 1.5929855-3.2968812 3.1627051-5.2117889 4.6799523.0953255-1.5370481.1442231-3.0998373.1442231-4.6799523 0-1.5761549-.0508731-3.1404292-.1486683-4.6824274 1.9158955 1.5177421 3.6678112 3.0889467 5.2162341 4.6824274zm-13.5391924 10.3162898c-1.9707199 1.1400392-3.9587269 2.1701831-5.935374 3.0790462-1.988501-.9113382-3.9839168-1.9409871-5.9501916-3.0790462-1.9731896-1.1415241-3.8594501-2.3538368-5.6350738-3.6166416-.2034929-2.1731533-.307709-4.4165998-.307709-6.6996482 0-2.2805734.1042161-4.5215448.3067211-6.6922228 1.7810568-1.2692403 3.6687992-2.485513 5.6360617-3.6240671 1.9726958-1.1415241 3.9636664-2.1726581 5.9427828-3.0825114 1.9791167.9098533 3.9695932 1.9409873 5.9427828 3.0825114 1.9702261 1.1400392 3.8545111 2.3508666 5.6281592 3.6121865.2064563 2.1815686.3146237 4.4284803.3146237 6.7041034 0 2.2835434-.10471 4.5269899-.3077089 6.6996482-1.7751298 1.2623098-3.6608966 2.4741274-5.635074 3.6166416zm5.235003-.2692928c-.3531491 2.4171998-.8337282 4.7190591-1.4353165 6.8565706-2.1416145-.547496-4.3736154-1.2816158-6.6406843-2.1830537 1.3720953-.6841224 2.7436967-1.4212125 4.1054197-2.2092899 1.3656744-.7900574 2.6908478-1.6137765 3.9705811-2.464227zm-14.2652472 4.6764871c-2.2690445.9039129-4.5025271 1.6390229-6.6540201 2.1865188-.602082-2.1394915-1.0831551-4.443331-1.4367981-6.8630059 1.2802272.8509455 2.6058945 1.6741696 3.9705811 2.464227 1.3622169.7880774 2.7397454 1.5261575 4.1202371 2.2122601zm-11.1827248-10.044522c-1.9129319-1.5152669-3.6618842-3.0839963-5.2083315-4.6750019 1.5439778-1.5850652 3.2944118-3.1552799 5.2078376-4.6725269-.0953255 1.5330877-.1437292 3.0924118-.1437292 4.6685667 0 1.57962.0488976 3.1424092.1442231 4.6789621zm3.0914127-14.7205139c.3531492-2.421655.8347161-4.7274746 1.437786-6.8684512 2.1495172.547001 4.3810242 1.2816158 6.6485871 2.1845387-1.3755527.6856077-2.7496237 1.4241826-4.1148042 2.2142402-1.3627108.7880775-2.6883783 1.6147667-3.9715689 2.4696723zm22.3476688-.0108906c-1.2772636-.8489653-2.5999675-1.6707042-3.9616906-2.4587817-1.3651805-.7900576-2.7397454-1.5286325-4.115298-2.2142402 2.2655871-.9024277 4.4946246-1.6360526 6.64266-2.1825586.597637 2.1325613 1.0796978 4.4368957 1.4343286 6.8555805zm-2.0611065-16.38428792c0 1.18756129-.9641216 2.1543423-2.1495171 2.1543423s-2.1495172-.96678101-2.1495172-2.1543423c0-1.18805642.9641217-2.1543423 2.1495172-2.1543423s2.1495171.96628588 2.1495171 2.1543423zm-17.2415776 4.88637692c2.2399036-5.31110715 5.2048742-8.35698675 8.1337888-8.35698675.9952384 0 1.9919585.34305126 2.9713914 1.02024341-.4381023.71332897-.6914807 1.55288883-.6914807 2.45036642 0 2.58501268 2.0986441 4.68886262 4.678361 4.68886262.3571004 0 .7043225-.041582 1.0387028-.1183106.3496917.8044131.678145 1.6509034.9843722 2.5374904-2.8968103.7464956-5.9235201 1.8103011-8.9813467 3.1542899-3.0588142-1.344484-6.086512-2.4082894-8.9838161-3.1547849.2662201-.7682765.5497271-1.5093266.8500273-2.2211705zm-14.55468113 17.835202c-3.46876351-4.6002535-4.61859715-8.696078-3.15413981-11.2385187 1.46445733-2.5424407 5.57876754-3.5923855 11.28792864-2.8815318.7650741.0955395 1.5474351.2202854 2.3441197.3732477-.8040933 2.8904423-1.3992607 6.0536424-1.7667333 9.3836655-2.6854147 1.9830643-5.1223903 4.0824589-7.21263768 6.2160103-.53244021-.6167994-1.03228199-1.2350837-1.49853755-1.852873zm-4.70947747 9.0282386c.33783759-.1955343.70679198-.2881036 1.07130116-.2881036.74334173 0 1.46742076.3861183 1.86502226 1.0766762.59269775 1.0286587.23954864 2.3488865-.78680623 2.9429147-1.02684889.5940282-2.3436258.2400863-2.93632355-.7885724-.59269775-1.0291539-.23954864-2.3493817.78680636-2.9429149zm12.8432663 12.5221146c-5.7091611.7108538-9.82347131-.339586-11.28792864-2.8815318-.49836012-.8648061-.69987736-1.8999003-.60455171-3.0884517.04395838.0014851.08791677.0044552.13138127.0044552.81051427 0 1.61065611-.213355 2.33177184-.6301649 2.23397652-1.2930014 3.00201404-4.1661178 1.71240249-6.405109-.17879709-.3103798-.38821696-.5910581-.62134474-.8430251.52009224-.7054084 1.08710643-1.4142821 1.70005465-2.1231558 2.09321094 2.1409767 4.52623514 4.2369061 7.21658914 6.2189802.3674726 3.327053.962146 6.4867881 1.7657454 9.3747553-.7966846.1529622-1.5790456.2777081-2.3441197.3732476zm22.68847 3.7151515c-2.2403975 5.3111072-5.2048741 8.3569868-8.1337889 8.3569868-2.9289146 0-5.8938852-3.0458796-8.1337888-8.3569868-.3003002-.7118438-.5838072-1.452894-.8500273-2.2211705 2.9002677-.7469905 5.9309288-1.8122811 8.9927067-3.1582499 3.0553568 1.3385435 6.0879937 2.4038341 8.9769014 3.1523096-.267208.7702566-.551209 1.5137819-.8520031 2.2271108zm13.0921995-1.2147877c-.5926978 1.0286589-1.9094747 1.3821056-2.9363235.7885724-1.026355-.5940282-1.3795041-1.9142558-.7868063-2.9429147.3976015-.6905578 1.1216805-1.0766762 1.8650222-1.0766762.3645092 0 .7334636.0925695 1.0713013.2881038 1.0263549.5940282 1.379504 1.9142558.7868063 2.9429147zm4.6166216-5.3818956c-.4978661.863816-1.292575 1.557839-2.3678276 2.0691983-.3971075-.73709-.9957322-1.3766604-1.7711784-1.8251517-1.0821674-.6262047-2.3431318-.7930276-3.5497657-.4682922-1.2071277.3237453-2.2161957 1.0999422-2.8409979 2.1845387-.1773154.3074096-.3161054.6291749-.4183458.9603456-.8692901-.0990047-1.7647576-.2371163-2.6834391-.4143346.8031054-2.8874721 1.397285-6.0457222 1.7647576-9.371785 2.6923295-1.9830643 5.1248599-4.0789937 7.2185647-6.2204655.5299705.6148193 1.0288246 1.2311235 1.4935983 1.8474277 3.4692576 4.6002536 4.6190912 8.696078 3.1546339 11.2385187z" fill="#325eea"/><path d="m31.046763 24.4186047c-4.4240405 0-8.0235072 3.5990765-8.0235072 8.0232558 0 4.4241792 3.5994667 8.0232558 8.0235072 8.0232558 4.4235379 0 8.0230044-3.5990766 8.0230044-8.0232558 0-4.4241793-3.5989637-8.0232558-8.0230044-8.0232558zm0 13.4721511c-3.0046672 0-5.4492274-2.444134-5.4492274-5.4488953 0-3.0047614 2.4445602-5.4488954 5.4492274-5.4488954 3.0041645 0 5.4487246 2.444134 5.4487246 5.4488954 0 3.0047613-2.4440574 5.4488953-5.4487246 5.4488953zm25.1759842-13.7624284c-.2594477.2601451-.4087937.6200944-.4087937.9887698 0 .3670391.149346.7275337.4087937.9871337.2594476.2595996.619731.407397.9865551.407397.3684593 0 .7271077-.1477974.9881905-.407397.2594476-.261236.4071584-.6200946.4071584-.9871337 0-.3686754-.1477108-.7275338-.4071584-.9887698-.2610828-.2595998-.6197312-.4073972-.9881905-.4073972-.3668241 0-.7271075.1477974-.9865551.4073972z" fill="#c1d0fa"/></g></svg>