<svg height="65" viewBox="0 0 60 65" width="60" xmlns="http://www.w3.org/2000/svg"><g fill="none"><path d="m52.396163 0c-2.31161-.00791139-4.4996045 1.04529266-5.9345333 2.85799051-1.4349287 1.81220329-1.958564 4.18314873-1.4205893 6.43146759-3.1210443-1.92345734-7.1182753-1.65990899-9.9599486.65664557l-7.4292919 6.03589783-12.0980024-5.7624604.5488529-1.09523338c.2665149-.53401899.0499406-1.18275316-.4840784-1.44976266-.534019-.26651493-1.1827531-.04994063-1.4497626.48407836l-.5691259 1.13083468-3.4058544-1.62035202c-.35156252-.19976279-.78520568-.18690671-1.12391214.03411784-.33870658.22102443-.52561316.61214393-.48457278 1.01463608.04104038.40199759.30310519.74762658.67988519.89547063l3.36778093 1.60403497-.6299446 1.2584058c-.2665151.534019-.0499406 1.1832476.4840784 1.4497627.5340189.266515 1.1827531.0499406 1.4497625-.4840784l.6477453-1.2959849 11.2089596 5.3426621-1.8868671 1.5328323c-.658129.5374802-1.2148931 1.1886867-1.6430973 1.9224683-1.5105814 3.1828521-.461333 6.9921875 2.4658821 8.952235l10.262065 6.5718948-10.6472509 4.7344739c-1.7721519.762955-2.8540347 2.5761471-2.6844343 4.4976266l-13.52798647-8.24911c-.3298062-.2056962-.74416544-.2185523-1.08583873-.0336234-.34167317.1849288-.55775317.5389635-.56615899.9271163-.00791139.3886471.19284025.7510877.52660203.950356l39.67662186 24.1960048c3.158129 1.9422468 7.1840388 1.7494066 10.1419107-.4860562.4771558-.3579905.5735759-1.0354035.2155854-1.5125594-.3574961-.4771558-1.0349091-.5740704-1.5120649-.2160799-2.252769 1.6999604-5.3164557 1.8463212-7.7210245.3693632l-20.3352453-12.4020966c.0702137-.0271953.1458664-.0390624.2160799-.0702135l15.1938291-6.7568236c3.00089-1.3523537 4.382417-4.8457278 3.1190665-7.8851859-.46875-1.12589-1.2722508-2.0811908-2.3017208-2.7358584l-8.1141218-5.7248814 2.8085443-1.4042721 3.7989518 2.6419106 3.3484968 2.3323773c1.6381527 1.1753362 3.8602651 1.1080894 5.4247428-.1641613l3.6723695 1.7464398c.3485959.1661393.7589993.1335048 1.0769384-.0855419.317939-.2185523.4949564-.5903877.4642997-.9750791-.0301621-.3851859-.2640426-.7243868-.6121439-.8900316l-3.3628362-1.6010681c.2566257-.6779074.3357396-1.4097112.2304192-2.1266812-.180973-1.170886-.832674-2.2166733-1.8042919-2.8950752l-2.8797468-1.99911.3243671-.0682357c1.1659414-.2521757 1.9066456-1.4013053 1.65447-2.5672468l-.6477453-2.9870451c-.0583466-.2699763-.1493276-.5280854-.2314082-.7896559 2.7788765 1.4774527 6.1817641 1.0789162 8.5443038-.9998022 2.3625396-2.0792127 3.1902689-5.4039754 2.0782239-8.34800236-1.1115507-2.94353241-3.9304788-4.89121833-7.077235-4.88973494zm-3.0048458 24.4204905c.4870451.3387065.8133901.8633308.9023932 1.4502571.0885087.586432-.0677413 1.1842366-.4326542 1.6519977-.7802611.9004153-2.1212421 1.0507318-3.0819818.3456289l-2.6226266-1.8255538-1.5832674-1.1016614-3.476068-2.4174248h-.0054391l-.9904075-.68928c-.4494659-.3120056-.7639438-.7837224-.8791534-1.3187303l-.4138648-1.9195016c-.1221322-.5602255-.0163172-1.1461629.2942049-1.6282634.3100278-.4821005.7990507-.8213014 1.3592761-.9424447l2.1919501-.474189c.5829708-.1260879.9538174-.7006528.8277295-1.2836234-.1255933-.5834652-.7006526-.9543118-1.2836234-.828224l-2.1914557.4741892c-2.3308939.5063291-3.8123023 2.8031052-3.3119066 5.1349881l.4133702 1.9204905c.1933346.872231.6526898 1.6623812 1.3147745 2.2621638l-2.2151899 1.1090782c-.1270767.0637857-.2403084.1513054-.3337619.2581092-.4128757.4771559-.5968155 1.1100673-.5033622 1.7340784.0855419.6042325.4272152 1.1427018.9375 1.4774525l8.1942246 5.7832279c.6749407.4222705 1.2030261 1.0428203 1.512065 1.7770964.8109177 1.9536195-.0771362 4.1984771-2.0060325 5.0677414l-15.1977849 6.7652294c-.5424248.240803-1.1595134.24822-1.7073773.0202729-.5478639-.227947-.9775514-.6709849-1.1886867-1.2257714-.3663963-1.1362737.2037183-2.3630339 1.3083464-2.8159611l10.6472509-4.7409019c.7253757-.3228838 1.2148932-1.0185918 1.2747231-1.81072.0598298-.7921281-.319917-1.5531052-.9889241-1.9818038l-10.2615704-6.5714003c-1.9743868-1.3464201-2.7056962-3.9111947-1.738034-6.0967168.2937105-.4890229.6704905-.9231607 1.1140229-1.28214l11.1733585-9.0733781c2.5741692-2.10344154 6.3246638-1.91060129 8.6694026.4460047.9370056.9355221 1.5832675 2.122231 1.8611551 3.4167325l.6477453 2.9865506-1.5328324.3243671c-.631428.1349882-1.1229231.6329114-1.2495054 1.2663174-.1265823.6339002.1349881 1.28214.6665348 1.6500197zm3.0048458-11.4586629c-2.9825949 0-5.4010087-2.4179194-5.4010087-5.40051431 0-2.98308937 2.4184138-5.40100873 5.4010087-5.40100873 2.982595 0 5.4010086 2.41791936 5.4010086 5.40100873-.0039557 2.98111151-2.419897 5.39705301-5.4010086 5.40051431z" fill="#3156db"/><path d="m9.72952924 30.2447587c.48210046.0004945.90585446-.3184335 1.03935926-.7817445.1330102-.4633109-.0568632-.9587618-.4657833-1.2143988l-8.64121836-5.4010086c-.50731798-.3159612-1.17484178-.1611946-1.49080304.3456289-.3164557.5073181-.16168902 1.1748418.34562898 1.490803l8.64121836 5.4010088c.17207278.1053203.36985759.1607001.5715981.1597112zm.04117017-5.8941949 7.21972449 4.5125344c.4234503.263985.9811653.1346778 1.2451504-.2887725.2643983-.4238634.135091-.9811654-.2887724-1.2455636l-7.2197246-4.5121212c-.4234502-.2643983-.98116523-.135091-1.24556347.2887724-.26398515.4234503-.13467791.9811653.28918558 1.2451505z" fill="#c1d0fa"/></g></svg>