<svg height="64" viewBox="0 0 63 64" width="63" xmlns="http://www.w3.org/2000/svg"><g fill="none"><path d="m17.3491836 10.865707c.4350852 1.2762422 1.607784 2.134293 2.9183845 2.134293h7.9437782c1.3106005 0 2.4832993-.8580508 2.9183844-2.134293.4147741-1.21990552 1.7178915-3.94898371 2.7291705-4.81570168.8862054-.76162841 1.3020484-1.94144824 1.0839714-3.07901557-.2138011-1.11914957-.9845539-2.00320189-2.0610422-2.36397324-3.2080849-1.07798047-6.0537769-.71504232-8.2292027 1.04764534-.3901869.31635205-.9139995.31635205-1.3041864 0-2.1754258-1.76160427-5.0189798-2.12454241-8.2292027-1.04656195-1.0764883.36077136-1.8483101 1.24374028-2.0621112 2.36397325-.218077 1.13756733.197766 2.31738716 1.0839714 3.07901557 1.1449047.9815581 2.8980733 3.90456443 3.2080848 4.81461828zm-2.1925298-7.48085942c.0384842-.20259532.1731789-.56445007.6349892-.71937591.9941749-.33368641 1.9210024-.49944622 2.7783447-.49944622 1.3191525 0 2.4715402.39435667 3.443266 1.18198662 1.1705608.95013957 2.8061388.94797277 3.9745616 0 1.6045769-1.30007695 3.6966203-1.52975721 6.2216108-.6825404.4618102.15492584.5954359.51786399.6339201.71937591.0716233.37593892-.0652093.75404463-.3666688 1.01297662-1.6334401 1.40191631-3.0937013 4.95762676-3.3673667 5.7625911-.1368326.4030238-.4981564.6738732-.8968954.6738732h-7.9437782c-.399808 0-.7600628-.2708494-.8968955-.6738732-.4457752-1.30874416-2.42878-4.54376896-3.84735-5.7625911-.3025285-.26001539-.4404301-.6381211-.3677378-1.01297662z" fill="#3156db"/><path d="m33.764394 15.1339705c0-.6259517-.4708299-1.1339705-1.0509596-1.1339705-.1954785 0-.3688869.0737081-.5254798.1734975-.156593-.1009234-.3300013-.1734975-.5254798-.1734975h-12.6115152c-.5801297 0-1.0509596.5080188-1.0509596 1.1339705s.4708299 1.1339705 1.0509596 1.1339705h12.6115152v1.1339706h-11.5605556c-.5801297 0-1.0509596.5080187-1.0509596 1.1339705 0 .6259517.4708299 1.1339705 1.0509596 1.1339705h12.5326932c.9416598.845942 2.1019192 1.3301474 3.3410006 1.3301474 1.403031 0 2.7230363-.5907986 3.7161931-1.6624008.4109252-.4433824.4109252-1.1600518 0-1.6034343s-1.0751317-.4433825-1.4860569 0c-1.1875843 1.2813867-3.2453632 1.2847886-4.4413552.0158756zm-10.8310607 12.8660295c-6.8384 0-14.9333333 8.6391875-14.9333333 15.9375 0 .5865.47786667 1.0625 1.06666667 1.0625s1.06666663-.476 1.06666663-1.0625c0-6.066875 7.1776-13.8125 12.8-13.8125.5888 0 1.0666667-.476 1.0666667-1.0625s-.4778667-1.0625-1.0666667-1.0625z" fill="#c1d0fa"/><path d="m52.3338799 33.9508792c-1.0996769 0-2.4094765.0643887-3.7299422.2157021-1.4367263-2.6463745-3.3310293-4.9225141-5.7223734-6.7651033l-7.6817396-5.2530426c-1.2703349-.9808541-3.2723657-2.1484354-5.5954466-2.1484354h-8.2950416c-2.0521615 0-4.0701914.7029097-5.6530437 1.9552694l-7.54947973 5.5342065c-7.86839678 6.2242384-10.35893582 17.1316797-5.92076326 25.9357576 1.61485058 3.2033365 4.31231235 7.074169 8.00065669 7.3252848.2890518.0193166.5813035.030048.8756884.030048h20.7552031c1.5657864 1.959562 3.9624636 3.2194337 6.6503258 3.2194337 3.0910416 0 5.7959697-1.6687398 7.2934929-4.1519963 1.9060357.5955952 4.2429826.9325626 6.5724632.9325626 5.1293372 0 10.6661201-1.640838 10.6661201-4.2925782v-5.9022951h-.0842623c.0511973-.1738494.0842623-.3519914.0842623-.5365722v-6.4388674-5.9022951c0-2.9661715-6.7047231-3.7570791-10.6661201-3.7570791zm8.4518336 3.7463477c-.0223989.022536-.0405313.0450721-.071463.0697544-.0415979.0332675-.0917287.0686812-.1482591.1051682-.0703964.045072-.1557254.0922904-.2485206.1395088-.0757294.0386332-.1546587.0783395-.2453208.1180459-.1119942.0504377-.2442541.1008755-.3797138.1523865-.1087945.0407795-.2186555.081559-.3423825.1234116-.1557253.0515109-.3349162.1030219-.5151736.1534597-.1407928.0397063-.2794523.0804858-.4351777.119119-.2026563.0504378-.4309112.096583-.6580996.1427282-.1717245.0354138-.3349162.0719007-.5205067.1051682-.2559868.0450721-.5418389.0837053-.824491.1223385-.1930568.0268286-.3733142.0568767-.5791704.0804858-.3359827.0386332-.7060971.0654619-1.0751449.0922905-.1877237.0139508-.3583816.0332674-.5546382.045072-.5823702.0321944-1.1988719.051511-1.8569715.051511s-1.2746014-.0193166-1.8569715-.051511c-.1962566-.0107314-.3669145-.030048-.5546383-.045072-.3690477-.0279018-.7391621-.0547304-1.0751449-.0922905-.2058561-.0236091-.3861135-.0536572-.5791703-.0804858-.2826522-.0386332-.5685042-.0772664-.8244911-.1223385-.1855904-.0332675-.3487821-.0697544-.5205066-.1051682-.2271884-.0472183-.4554433-.0933635-.6580996-.1427282-.1557254-.0386332-.2933183-.0783395-.4351777-.119119-.1802575-.0504378-.3583817-.1019488-.5151736-.1534597-.123727-.0407795-.2335881-.0826321-.3423825-.1234116-.1354597-.051511-.2677196-.1019488-.3797139-.1523865-.090662-.0397064-.1695913-.0794127-.2453207-.1180459-.0927953-.0482916-.1781242-.0955099-.2485206-.1395088-.0565304-.036487-.1066612-.0708276-.1482591-.1051682-.0287985-.022536-.0447977-.0429258-.0661299-.0643887.0127993-.0107314.0213322-.0214629.0362648-.0332675.0394646-.0332674.0959951-.0708275.1514589-.1073144.0863956-.0568767.1941234-.1169728.3210502-.1813614.0693298-.0354138.137593-.0697544.2186555-.1051682.0842623-.0375601.181324-.0751201.2783857-.1137533.1151941-.0450721.2410543-.0901442.3743808-.1352163.0959951-.0321943.1887903-.0654618.2954515-.0976561.2389211-.0729738.5002411-.1448745.7871597-.2146289.1322599-.0321944.285852-.0611693.4298446-.0912173.1738578-.0375601.351982-.074047.5407723-.1083876.2079894-.0375601.4287781-.0729738.657033-.1073145 1.2020718-.1824345 2.6409314-.3090656 4.3571101-.3090656 5.0408083-.0010731 7.8598638 1.0452428 8.4571666 1.5989854zm-16.2647665 8.8287603c.0959951.0407795.19519.0794127.2954515.119119.1855905.0729738.3754474.1416551.571704.2092632.1034614.0354138.2047895.0697544.3103841.1030219.2250552.0708275.45651.1362893.6932978.1996049.0831958.022536.1631917.0472183.247454.0676081.3231835.081559.6538332.1566791.9930158.223214.0703964.0139509.1439926.0246824.2154556.0386332.2719861.051511.547172.0987293.8266243.140582.1194606.0182434.2399877.0332675.3605149.0493646.2399877.0321944.481042.0611693.7252962.0869247.1279934.0128778.2559868.0257555.3839803.0375601.2517204.022536.5045075.0397064.7583611.0547304.1130609.0064388.2261218.015024.3391826.0203897.3647813.0160972.728496.0268286 1.0911441.0268286s.7263628-.0107314 1.0911441-.0268286c.1151941-.0053657.2303882-.0139509.3455823-.0203897.2506538-.015024.5013076-.0321944.7508948-.0536573.1311933-.0118045.2623866-.0246823.3925133-.0386332.2399877-.0246823.4778421-.0536572.71463-.0858515.123727-.0160972.247454-.0321944.3701144-.0504378.2751859-.0407795.5461053-.0879979.8138249-.1384357.0757295-.0139508.1525256-.0257554.228255-.0407795.3370494-.0676081.6666325-.141655.9876827-.2221409.0895954-.022536.1749244-.0482915.2634532-.0719007.2314548-.0622423.4586432-.126631.6783652-.1963854.1077278-.0343406.2111892-.0697544.3157172-.1051682.19519-.0665349.3850469-.1362893.5695708-.20819.0991949-.0386332.1983898-.0783396.2943849-.1191191.1919902-.081559.3743808-.1674105.5503718-.2554084.0554638-.0279017.1183939-.0515109.1717245-.0794127l.0063997 3.7817614c-.2506538.6106193-3.0067792 1.9713666-7.3553564 2.1892149-.39038.0139509-.7679606.0332675-1.1892724.0332675-2.3497462 0-4.670694-.3627228-6.4434031-1.0001707-.0063997-.0107314-.013866-.0214629-.0202656-.0321943-.1258603-.2210678-.2591868-.4367699-.4031794-.6449599-.0213322-.0311212-.0458643-.0600961-.0682631-.0912173-.1333266-.1878003-.2709195-.371308-.4191786-.5473037-.0447977-.0525841-.0927952-.1008756-.1386595-.1534597-.1311933-.1491671-.2634532-.2961879-.404246-.4356967-.0725296-.0719007-.1503923-.1362894-.2250551-.2060437-.123727-.1137534-.2453208-.2275067-.3743808-.333748-.0127994-.0107315-.0234655-.022536-.0362648-.0321943 0-.4195996.0010666-1.3521622.0021332-2.5251092.0543972.0289749.1194605.0536572.1749244.081559.1759909.0869247.3551818.1717031.5439721.252189zm-14.0910112 12.1072169h-19.3675409c-.2463873 0-.4917081-.0085852-.733829-.0246824-2.09589262-.1427282-4.31231237-2.3287236-6.24074688-6.154484-3.97952939-7.8940514-1.73431112-17.6843492 5.30532813-23.2539694l7.54947975-5.5342065c1.2394032-.979781 2.790257-1.5195727 4.365643-1.5195727h8.2950416c1.7247116 0 3.2883648.9271969 4.3475105 1.7417136l7.6817397 5.2519695c1.9081688 1.4723543 3.4984873 3.2730909 4.7410903 5.3667959-1.3503308.2800908-2.6558639.7072023-3.5528846 1.3339187-.024532.0171703-.0490641.0343406-.0735962.051511-.1354597.0987293-.2591867.2028243-.3722476.312285-.0479975.0461452-.090662.0933636-.1343931.1416551-.0842623.0933636-.1653249.1878003-.2314548.2886759-.0554638.0826321-.0959951.1717031-.1386596.259701-.0373314.0794127-.0821291.1556059-.1087944.2393112-.0586636.1813614-.0949284.371308-.0949284.5730592v5.9022951 3.8515158c-.3594483-.1470208-.7316959-.2650667-1.113543-.3616497-.0501307-.0128778-.1002615-.0268286-.1503923-.0386332-.3733142-.0879979-.7540947-.1545329-1.143408-.1910198-.0437311-.0042925-.0874622-.0032194-.1311933-.0064388-.2186555-.0171704-.4383776-.0332675-.6612995-.0332675-.1173273 0-.2303882.0128777-.3466489.0171703-.090662.0032194-.181324.007512-.271986.0139509-.3797139.0279017-.7551613.0719007-1.1199426.1480939-.0074663.0010732-.013866.0010732-.0213323.0032195-.0287985.0064388-.0554638.0182434-.0842623.0246823-.3338496.074047-.6591663.1717031-.9770166.2854564-.1151941.0407795-.2303882.081559-.3434491.1266311-.3167838.1277042-.6261012.2693593-.923686.4335504-.1119943.0611692-.2165222.1319968-.3253167.1985317-.2079893.1277042-.4106456.2618473-.6058356.4067218-.1151941.0847784-.2314548.1674106-.3423824.2575547-.2506539.2038975-.4895749.4217458-.7156967.6535451-.0991949.1008755-.1898569.20819-.2837188.3144313-.1599918.1802883-.3125173.3680886-.4565099.5612546-.0778627.1051682-.1599918.2049706-.233588.3133582-.1877238.2757982-.3551818.5655472-.5098406.8628082-.0597303.1158997-.1141275.2339456-.1695913.3530646-.1215938.2629204-.2303882.5312066-.3253167.8080779-.0277319.0804858-.0618635.1566791-.0863955.238238-.1098611.3519915-.189857.7168606-.2538537 1.0860223-.0085329.0472184-.0255987.0922905-.033065.1395088-.0085329.0579498-.0085329.1201922-.0159991.178142-.0341316.252189-.0554639.5075974-.0671966.7662252-.0042664.0922905-.0127993.1835078-.013866.2768713 0 .0397064-.0063996.0783396-.0063996.1180459 0 .17063.0159992.3369674.0255987.504378.0415978.9271969.1919901 1.8586864.4703759 2.7139826zm8.037988 3.2194336c-3.5038204 0-6.3548743-2.8481256-6.3954056-6.362674 0-.0837053.0021333-.1663374.0053331-.2500427.0031998-.1180459.0085329-.2350187.0181324-.3519914.0074663-.0987293.019199-.1963855.0309318-.2940416.0127993-.0998025.0277319-.1985318.0447977-.2961879.0479975-.2790176.109861-.5548158.1941233-.8220288.0085329-.0289749.0213323-.0558035.0309318-.0837053.0895954-.2693592.1973232-.5322797.3221168-.7866149.0117328-.0246823.0234655-.0493647.0351982-.0729738.5749039-1.135387 1.4825907-2.0947782 2.5822677-2.7268604.0042664-.0021463.0074663-.0053657.0117327-.007512.2495872-.1427282.5119738-.2629204.7786268-.3702348.0693298-.0279018.1397262-.0525841.2090559-.0772665.2367879-.0847784.4778422-.1588253.7263628-.2135557.0341316-.007512.06613-.0193166.1002615-.0257555.3082509-.0633155.6175684-.0976561.9258193-.1158996.0586636-.0032194.1173273-.007512.1770576-.0085852.3146505-.0096583.6282344-.0010731.9375519.0354138.0181324.0021463.0351982.0053657.052264.0085852.3263833.0407795.6495667.1062413.9674171.1985317.0042664.0010732.0095995.0021463.0138659.0032194.3274499.0955099.6485001.2189215.9620841.3680886.2879852.1373625.5685042.2908222.8308907.4678911l.0426645.030048c.0373314.0257555.071463.0547304.1077278.0804858.1770576.1277042.3466489.2629205.5098406.407795.0394646.0343406.0778626.0708275.1162607.1062413.1631916.1523865.318917.3112119.4650428.4786225.0149326.0171703.0298651.0321943.0447977.0493646.3391826.3970635.6314343.8359796.866089 1.3070901.0543972.1073144.1087944.215702.1567919.3262359.0810625.1878003.1514589.3777469.214389.5698398.0042665.0139509.0106662.0279017.0149326.0418526.0618635.1942392.1119943.3916978.1546587.5902295.0031999.0160972.0085329.0311212.0117328.0461452.0405312.1974586.0703964.3970635.0927952.5977416.0021333.0182434.0063997.0343406.0085329.052584.0223989.2189215.0341316.4389162.0341316.6610571 0 .2275066-.0127993.4539401-.0362648.6793005-.0031998.0332675-.0106661.0643887-.0149326.0976562-.0234654.1942391-.052264.3874051-.0938618.5773517-.0042665.0214629-.0117328.0418527-.0159992.0633156-.0458643.2038974-.1002615.4056486-.1663915.6052535-.0031998.0085851-.0063997.0171703-.0095995.0257555-.0703964.20819-.1514589.4131606-.2431875.6159849-1.0122148 2.2224824-3.2382341 3.7742494-5.8215684 3.7742494zm13.8659561-3.2194336c-2.0244296 0-4.0392596-.2715056-5.6946415-.7576401.0010666-.0021463.0010666-.0042926.0010666-.0064389.1034614-.3476988.1791909-.7061291.2389211-1.0709982.013866-.0869247.0277319-.1727763.0394647-.2607742.0479975-.3691617.0821291-.7415428.0821291-1.1235823 0-.2779444-.0149326-.5537426-.0415979-.8273945-.0095995-.0987293-.0266653-.1942391-.0394646-.2918953-.0181324-.1384356-.0309318-.2779444-.0554638-.4142338 1.6180504.3004805 3.4974207.460379 5.4695863.460379 2.5492027 0 6.2343472-.3273091 8.5371625-1.351089l.0063997 3.4211849c-.2730527.6642765-3.5102201 2.2224824-8.5435622 2.2224824zm0-12.8777347c-5.0162762 0-8.2459774-1.5464013-8.527563-2.1398503.0010666-1.2233848.0021333-2.465013.0021333-3.4995244.0266653.0118046.0586636.0214629.0863955.0332675.2549203.1094608.5215733.2124826.8052921.3069194.0149326.0053657.0298651.0107314.0458643.015024.2901185.0944367.5962361.1792151.9087534.2575547.1023948.0257554.2079894.0493646.3125174.0729738.2282549.0525841.4586431.1030219.6943644.148094.1141275.022536.2271883.0439989.3423824.0643886.2591868.0461452.5194401.0869247.7828932.1255579.0831958.0118046.1653249.0257555.2485206.0375601.3445157.0461452.6890314.0869247 1.0314139.1201922.0863955.0085851.1706579.015024.2570534.022536.2634532.0236092.5237065.0450721.7818266.0622424.1119943.007512.2207887.0139509.3306498.0203898.2389211.0139508.4714425.0246823.7018307.0332674.0970617.0032195.1941234.007512.2890518.0107315.3125173.0085851.6175684.0139509.9055536.0139509.2869186 0 .5919697-.0053658.904487-.0139509.0970617-.0032195.19519-.007512.2933183-.0107315.228255-.0085851.4597098-.0193166.6975643-.0332674.1119942-.0064389.2218553-.0128778.3349161-.0203898.2581201-.0171703.5194401-.0386332.7828932-.0633155.085329-.007512.1685247-.0139509.2538537-.0225361.3434491-.0343406.6879647-.0740469 1.0324804-.1212653.0842624-.0118046.1674581-.0257555.2517205-.0375601.2623865-.03756.5226398-.0794126.7807599-.1255579.1162608-.0203897.2293216-.0429257.3434491-.0643886.2357213-.0461453.4671761-.0955099.6964976-.1491671.104528-.0246824.209056-.0472184.3114508-.0729739.3189169-.0804858.6303677-.1663374.9258192-.2629204.0149325-.0053657.0277319-.0107314.0426645-.015024.2783857-.0922904.5418389-.1942392.7924927-.3015536.0298651-.0128778.0650633-.0236092.0949284-.0364869l.0063997 3.4211848c-.2741193.6664228-3.5112867 2.2246287-8.5446288 2.2246287z" fill="#3156db"/></g></svg>